<svg width="170" height="100" xmlns="http://www.w3.org/2000/svg">
 <!-- Created with SVG-edit - http://svg-edit.googlecode.com/ -->
 <g>
  <title>Ebene 1</title>
  <rect fill="none" stroke="#ffffff" stroke-linejoin="round" stroke-linecap="round" x="69" y="24" width="24" height="15" id="svg_19"/>
  <rect id="svg_21" height="1" width="2" y="27" x="72" stroke-linecap="round" stroke-linejoin="round" stroke="#ffffff" fill="none"/>
  <rect id="svg_23" height="1" width="2" y="27" x="78" stroke-linecap="round" stroke-linejoin="round" stroke="#ffffff" fill="none"/>
  <rect id="svg_24" height="1" width="2" y="27" x="88" stroke-linecap="round" stroke-linejoin="round" stroke="#ffffff" fill="none"/>
  <rect id="svg_25" height="1" width="2" y="31" x="72" stroke-linecap="round" stroke-linejoin="round" stroke="#ffffff" fill="none"/>
  <rect id="svg_26" height="1" width="2" y="31" x="78" stroke-linecap="round" stroke-linejoin="round" stroke="#ffffff" fill="none"/>
  <rect id="svg_27" height="1" width="2" y="31" x="88" stroke-linecap="round" stroke-linejoin="round" stroke="#ffffff" fill="none"/>
  <rect id="svg_28" height="1" width="2" y="35" x="72" stroke-linecap="round" stroke-linejoin="round" stroke="#ffffff" fill="none"/>
  <rect id="svg_29" height="1" width="8" y="35" x="77" stroke-linecap="round" stroke-linejoin="round" stroke="#ffffff" fill="none"/>
  <rect id="svg_30" height="1" width="2" y="35" x="88" stroke-linecap="round" stroke-linejoin="round" stroke="#ffffff" fill="none"/>
  <path id="svg_31" d="m81,44l3.933334,-3l-8,0l4.066666,3z" stroke-linecap="round" stroke-linejoin="round" stroke="#ffffff" fill="#ffffff"/>
  <path id="svg_32" d="m81,45" opacity="0.5" stroke-linecap="round" stroke-linejoin="round" stroke="#ffffff" fill="#ffffff"/>
  <rect id="svg_33" height="1" width="2" y="27" x="83" stroke-linecap="round" stroke-linejoin="round" stroke="#ffffff" fill="none"/>
  <rect id="svg_34" height="1" width="2" y="31" x="83" stroke-linecap="round" stroke-linejoin="round" stroke="#ffffff" fill="none"/>
 </g>
</svg>